<?xml version="1.0" standalone="no"?>
<!DOCTYPE svg PUBLIC "-//W3C//DTD SVG 20010904//EN"
 "http://www.w3.org/TR/2001/REC-SVG-20010904/DTD/svg10.dtd">
<svg version="1.0" xmlns="http://www.w3.org/2000/svg"
 width="192.000000pt" height="192.000000pt" viewBox="0 0 192.000000 192.000000"
 preserveAspectRatio="xMidYMid meet">

<g transform="translate(0.000000,192.000000) scale(0.100000,-0.100000)"
fill="#000000" stroke="none">
<path d="M1525 1643 c-48 -26 -95 -64 -95 -78 0 -23 -47 -46 -73 -36 -14 5
-56 13 -94 16 -65 7 -72 6 -92 -16 -26 -28 -27 -72 -2 -125 33 -70 33 -88 4
-115 -19 -18 -27 -21 -31 -11 -2 8 -17 25 -33 40 -16 14 -29 31 -29 37 0 7
-11 17 -25 23 -70 32 -126 -2 -144 -87 -6 -29 -11 -61 -11 -71 0 -16 -7 -20
-35 -20 -30 0 -37 5 -55 40 -11 21 -20 45 -20 51 0 7 -11 27 -26 46 -21 28
-31 33 -67 33 -23 0 -47 -4 -53 -8 -7 -4 -28 -38 -49 -77 -20 -38 -38 -72 -40
-73 -2 -2 -17 -1 -34 3 -29 6 -31 10 -31 48 -1 99 -38 167 -91 167 -26 0 -139
-82 -139 -101 0 -17 -25 -9 -54 16 -23 20 -40 25 -84 25 -47 0 -57 -4 -83 -31
-40 -42 -46 -86 -20 -140 28 -59 83 -119 110 -119 34 0 26 36 -19 88 -49 55
-58 84 -36 117 22 33 74 34 113 2 31 -26 174 -97 195 -97 7 0 42 -10 78 -21
54 -18 98 -22 261 -27 123 -3 220 0 261 7 71 12 183 53 207 76 98 91 121 114
121 122 0 5 14 19 30 31 17 13 30 26 30 30 0 12 133 151 165 172 34 22 122 27
156 9 36 -19 134 -123 152 -161 9 -20 17 -49 17 -64 0 -33 -31 -114 -43 -114
-21 0 -47 23 -47 41 0 49 -39 77 -58 42 -12 -20 3 -80 26 -105 14 -17 13 -18
-20 -18 -24 0 -53 11 -88 35 -69 47 -102 46 -147 -2 -19 -21 -46 -54 -59 -73
-13 -19 -31 -46 -41 -59 -16 -22 -16 -24 1 -36 25 -19 36 -12 74 45 19 27 47
63 63 80 l30 31 32 -25 c75 -57 143 -69 212 -37 50 23 87 64 109 119 20 54 20
90 -1 144 -23 59 -130 178 -185 206 -55 27 -148 29 -193 5z m-222 -160 c20 -3
37 -8 37 -12 -1 -8 -90 -105 -93 -100 -1 2 -13 26 -25 53 -26 54 -17 83 22 71
12 -3 38 -9 59 -12z m-880 -130 c3 -10 8 -40 12 -67 6 -43 5 -48 -10 -42 -9 3
-24 6 -33 6 -9 0 -32 9 -51 21 l-34 20 39 40 c41 42 70 50 77 22z m621 -45
c20 -17 36 -38 36 -45 0 -7 6 -13 13 -13 27 -1 -45 -31 -89 -37 l-47 -6 6 47
c7 50 22 86 36 86 5 0 25 -14 45 -32z m-314 -26 c0 -9 7 -26 15 -36 29 -38 20
-46 -55 -46 -38 0 -70 3 -70 6 0 10 54 99 64 106 15 10 46 -10 46 -30z"/>
<path d="M1626 1464 c-18 -48 9 -98 42 -77 36 22 26 93 -12 93 -13 0 -27 -7
-30 -16z"/>
<path d="M186 1044 c-8 -21 16 -48 69 -82 63 -39 99 -80 154 -175 l51 -89 0
-175 c0 -161 2 -179 21 -209 28 -47 46 -54 129 -54 66 0 74 2 101 29 28 29 29
33 29 126 l0 98 31 -7 c17 -3 49 -6 70 -6 l39 0 0 -70 c0 -132 33 -170 148
-170 67 0 75 2 99 27 34 37 43 64 43 129 l0 54 47 -35 c76 -56 111 -69 162
-59 40 8 46 14 72 64 20 39 29 70 29 106 l0 51 -62 44 c-34 24 -77 58 -95 74
l-33 30 31 85 c17 47 38 102 45 122 16 45 9 70 -19 66 -17 -2 -27 -21 -49 -83
-39 -111 -71 -181 -92 -200 -6 -6 -16 -19 -22 -30 -6 -10 -19 -23 -29 -29 -41
-23 -44 -37 -45 -179 0 -76 -5 -147 -10 -158 -9 -16 -22 -19 -75 -19 -81 0
-85 7 -85 133 0 108 1 107 -88 107 -31 0 -74 5 -96 9 -63 15 -66 11 -66 -100
0 -54 -5 -110 -12 -124 -10 -23 -17 -25 -69 -25 -90 0 -89 -1 -89 221 0 106
-4 189 -9 189 -5 0 -14 12 -21 28 -31 76 -80 152 -120 189 -49 44 -86 73 -96
73 -6 0 -19 9 -29 20 -22 24 -51 26 -59 4z m1141 -410 c12 -11 38 -29 58 -40
47 -25 53 -54 26 -110 -35 -68 -73 -67 -171 4 -83 61 -89 95 -28 157 41 42 43
42 67 26 14 -9 35 -25 48 -37z"/>
</g>
</svg>
